<svg width="14" height="12" viewBox="0 0 14 12" fill="none" xmlns="http://www.w3.org/2000/svg">
<path d="M2.64362 12H11.3564C12.7582 12 13.5 11.2448 13.5 9.84876V2.1449C13.5 0.74881 12.7582 0 11.3564 0H2.64362C1.24807 0 0.5 0.74881 0.5 2.1449V9.84876C0.5 11.2512 1.24807 12 2.64362 12ZM2.70648 10.5468C2.20358 10.5468 1.93956 10.293 1.93956 9.76626V4.02961C1.93956 3.49656 2.20358 3.24907 2.70648 3.24907H11.2935C11.7901 3.24907 12.0604 3.49656 12.0604 4.02961V9.76626C12.0604 10.293 11.7901 10.5468 11.2935 10.5468H2.70648ZM5.80561 5.36859H6.17021C6.4028 5.36859 6.47824 5.29878 6.47824 5.07033V4.69593C6.47824 4.46748 6.4028 4.39767 6.17021 4.39767H5.80561C5.57302 4.39767 5.49758 4.46748 5.49758 4.69593V5.07033C5.49758 5.29878 5.57302 5.36859 5.80561 5.36859ZM7.82979 5.36859H8.20068C8.42698 5.36859 8.50242 5.29878 8.50242 5.07033V4.69593C8.50242 4.46748 8.42698 4.39767 8.20068 4.39767H7.82979C7.60348 4.39767 7.52176 4.46748 7.52176 4.69593V5.07033C7.52176 5.29878 7.60348 5.36859 7.82979 5.36859ZM9.85397 5.36859H10.2249C10.4512 5.36859 10.5266 5.29878 10.5266 5.07033V4.69593C10.5266 4.46748 10.4512 4.39767 10.2249 4.39767H9.85397C9.62766 4.39767 9.55222 4.46748 9.55222 4.69593V5.07033C9.55222 5.29878 9.62766 5.36859 9.85397 5.36859ZM3.77515 7.38022H4.14603C4.37234 7.38022 4.45406 7.31042 4.45406 7.08197V6.70756C4.45406 6.47911 4.37234 6.40931 4.14603 6.40931H3.77515C3.54884 6.40931 3.4734 6.47911 3.4734 6.70756V7.08197C3.4734 7.31042 3.54884 7.38022 3.77515 7.38022ZM5.80561 7.38022H6.17021C6.4028 7.38022 6.47824 7.31042 6.47824 7.08197V6.70756C6.47824 6.47911 6.4028 6.40931 6.17021 6.40931H5.80561C5.57302 6.40931 5.49758 6.47911 5.49758 6.70756V7.08197C5.49758 7.31042 5.57302 7.38022 5.80561 7.38022ZM7.82979 7.38022H8.20068C8.42698 7.38022 8.50242 7.31042 8.50242 7.08197V6.70756C8.50242 6.47911 8.42698 6.40931 8.20068 6.40931H7.82979C7.60348 6.40931 7.52176 6.47911 7.52176 6.70756V7.08197C7.52176 7.31042 7.60348 7.38022 7.82979 7.38022ZM9.85397 7.38022H10.2249C10.4512 7.38022 10.5266 7.31042 10.5266 7.08197V6.70756C10.5266 6.47911 10.4512 6.40931 10.2249 6.40931H9.85397C9.62766 6.40931 9.55222 6.47911 9.55222 6.70756V7.08197C9.55222 7.31042 9.62766 7.38022 9.85397 7.38022ZM3.77515 9.3982H4.14603C4.37234 9.3982 4.45406 9.32205 4.45406 9.0936V8.72554C4.45406 8.49709 4.37234 8.42094 4.14603 8.42094H3.77515C3.54884 8.42094 3.4734 8.49709 3.4734 8.72554V9.0936C3.4734 9.32205 3.54884 9.3982 3.77515 9.3982ZM5.80561 9.3982H6.17021C6.4028 9.3982 6.47824 9.32205 6.47824 9.0936V8.72554C6.47824 8.49709 6.4028 8.42094 6.17021 8.42094H5.80561C5.57302 8.42094 5.49758 8.49709 5.49758 8.72554V9.0936C5.49758 9.32205 5.57302 9.3982 5.80561 9.3982ZM7.82979 9.3982H8.20068C8.42698 9.3982 8.50242 9.32205 8.50242 9.0936V8.72554C8.50242 8.49709 8.42698 8.42094 8.20068 8.42094H7.82979C7.60348 8.42094 7.52176 8.49709 7.52176 8.72554V9.0936C7.52176 9.32205 7.60348 9.3982 7.82979 9.3982Z" fill="black" fill-opacity="0.3"/>
</svg>
