<svg width="24" height="24" viewBox="0 0 24 24" fill="none" xmlns="http://www.w3.org/2000/svg">
<path d="M12.3096 23.6309C18.5508 23.6309 23.6855 18.4961 23.6855 12.2549C23.6855 6.00293 18.5508 0.868164 12.2988 0.868164C6.04688 0.868164 0.922852 6.00293 0.922852 12.2549C0.922852 18.4961 6.05762 23.6309 12.3096 23.6309ZM12.2988 8.80664C11.375 8.80664 10.6016 8.0332 10.6016 7.10938C10.6016 6.15332 11.375 5.40137 12.2988 5.40137C13.2227 5.40137 13.9854 6.15332 13.9854 7.10938C13.9854 8.0332 13.2227 8.80664 12.2988 8.80664ZM10.2578 18.3027C9.65625 18.3027 9.18359 17.8838 9.18359 17.25C9.18359 16.6807 9.65625 16.2188 10.2578 16.2188H11.4932V12.3945H10.4727C9.86035 12.3945 9.39844 11.9648 9.39844 11.3525C9.39844 10.7725 9.86035 10.3213 10.4727 10.3213H12.6748C13.4482 10.3213 13.8457 10.8477 13.8457 11.6641V16.2188H14.8232C15.4248 16.2188 15.8975 16.6807 15.8975 17.25C15.8975 17.8838 15.4248 18.3027 14.8232 18.3027H10.2578Z" fill="white"/>
</svg>
