<svg width="7" height="12" viewBox="0 0 7 12" fill="none" xmlns="http://www.w3.org/2000/svg">
<path d="M0.962891 11.9033C1.22852 11.9033 1.45264 11.812 1.63525 11.6294L6.60742 6.70703C6.83984 6.48291 6.94775 6.24219 6.94775 5.95166C6.94775 5.66113 6.83984 5.41211 6.61572 5.19629L1.63525 0.273926C1.45264 0.0913086 1.22852 0 0.962891 0C0.431641 0 0 0.42334 0 0.95459C0 1.22021 0.10791 1.46094 0.298828 1.66016L4.66504 5.95996L0.298828 10.2515C0.10791 10.4424 0 10.6831 0 10.9487C0 11.48 0.431641 11.9033 0.962891 11.9033Z" fill="#8E8E93"/>
</svg>
