<svg width="22" height="22" viewBox="0 0 22 22" fill="none" xmlns="http://www.w3.org/2000/svg">
<path d="M11.0996 21.3008C16.7734 21.3008 21.4414 16.6328 21.4414 10.959C21.4414 5.27539 16.7734 0.607422 11.0898 0.607422C5.40625 0.607422 0.748047 5.27539 0.748047 10.959C0.748047 16.6328 5.41602 21.3008 11.0996 21.3008ZM6.34375 10.9492C6.34375 10.2754 6.83203 9.76758 7.50586 9.76758H9.91797V7.35547C9.91797 6.69141 10.416 6.19336 11.0898 6.19336C11.7637 6.19336 12.2715 6.69141 12.2715 7.35547V9.76758H14.6836C15.3477 9.76758 15.8457 10.2754 15.8457 10.9492C15.8457 11.623 15.3477 12.1211 14.6836 12.1211H12.2715V14.543C12.2715 15.207 11.7637 15.6953 11.0898 15.6953C10.416 15.6953 9.91797 15.207 9.91797 14.543V12.1211H7.50586C6.83203 12.1211 6.34375 11.623 6.34375 10.9492Z" fill="#007AFF"/>
</svg>
