<svg width="23" height="25" viewBox="0 0 23 25" fill="none" xmlns="http://www.w3.org/2000/svg">
<path d="M6.58398 24.3193H16.6816C18.4111 24.3193 19.3564 23.4492 19.4316 21.7627L20.1084 6.54102H21.3652C22.085 6.54102 22.6113 6.02539 22.6113 5.31641C22.6113 4.61816 22.085 4.11328 21.3652 4.11328H16.9395V2.56641C16.9395 0.686523 15.7686 -0.376953 13.6738 -0.376953H9.58105C7.48633 -0.376953 6.30469 0.686523 6.30469 2.56641V4.11328H1.88965C1.18066 4.11328 0.643555 4.61816 0.643555 5.31641C0.643555 6.03613 1.18066 6.54102 1.88965 6.54102H3.15723L3.83398 21.7627C3.89844 23.4492 4.85449 24.3193 6.58398 24.3193ZM9.06543 2.6416C9.06543 2.25488 9.32324 2.0293 9.76367 2.0293H13.4805C13.9316 2.0293 14.1895 2.25488 14.1895 2.6416V4.11328H9.06543V2.6416ZM8.10938 20.624C7.60449 20.624 7.25 20.2803 7.23926 19.7754L6.91699 8.87207C6.90625 8.35645 7.23926 8.0127 7.76562 8.0127C8.29199 8.0127 8.64648 8.35645 8.65723 8.86133L8.97949 19.7539C8.99023 20.2695 8.65723 20.624 8.10938 20.624ZM11.6328 20.624C11.1064 20.624 10.752 20.291 10.752 19.7754V8.86133C10.752 8.35645 11.1064 8.0127 11.6328 8.0127C12.1484 8.0127 12.5029 8.35645 12.5029 8.86133V19.7754C12.5029 20.291 12.1484 20.624 11.6328 20.624ZM15.1455 20.624C14.6084 20.624 14.2646 20.2695 14.2754 19.7646L14.5977 8.86133C14.6084 8.35645 14.9629 8.02344 15.4893 8.02344C16.0156 8.02344 16.3594 8.35645 16.3379 8.87207L16.0264 19.7754C16.0156 20.2803 15.6504 20.624 15.1455 20.624Z" fill="white"/>
</svg>
